<svg width="49" height="48" viewBox="0 0 49 48" fill="none" xmlns="http://www.w3.org/2000/svg">
<g clip-path="url(#clip0_1304_15578)">
<path d="M36.3482 34.5946H11.9128C11.4498 34.5946 11.0059 34.4107 10.6786 34.0834C10.3512 33.7561 10.1674 33.3121 10.1674 32.8492V15.3953C10.1674 14.9324 10.3512 14.4884 10.6786 14.1611C11.0059 13.8338 11.4498 13.6499 11.9128 13.6499H36.3482C36.8111 13.6499 37.2551 13.8338 37.5824 14.1611C37.9097 14.4884 38.0936 14.9324 38.0936 15.3953V32.8492C38.0936 33.3121 37.9097 33.7561 37.5824 34.0834C37.2551 34.4107 36.8111 34.5946 36.3482 34.5946Z" fill="#EAEAEA"/>
<path d="M13.6581 34.5946H11.9128C11.4498 34.5946 11.0059 34.4107 10.6786 34.0834C10.3512 33.7561 10.1674 33.3121 10.1674 32.8492V15.3953C10.1674 15.1661 10.2125 14.9391 10.3002 14.7274C10.3879 14.5156 10.5165 14.3232 10.6786 14.1611C10.8406 13.999 11.0331 13.8705 11.2448 13.7828C11.4566 13.695 11.6835 13.6499 11.9128 13.6499C12.142 13.6499 12.3689 13.695 12.5807 13.7828C12.7924 13.8705 12.9849 13.999 13.1469 14.1611C13.309 14.3232 13.4376 14.5156 13.5253 14.7274C13.613 14.9391 13.6581 15.1661 13.6581 15.3953V34.5946Z" fill="black"/>
<path d="M34.6029 34.5946H36.3483C36.8112 34.5946 37.2552 34.4107 37.5825 34.0834C37.9098 33.7561 38.0937 33.3121 38.0937 32.8492V15.3953C38.0937 14.9324 37.9098 14.4884 37.5825 14.1611C37.2552 13.8338 36.8112 13.6499 36.3483 13.6499C35.8854 13.6499 35.4414 13.8338 35.1141 14.1611C34.7868 14.4884 34.6029 14.9324 34.6029 15.3953V34.5946Z" fill="black"/>
<path d="M37.3477 16.8263C37.5357 16.6951 37.6959 16.5281 37.8193 16.3349C37.9427 16.1417 38.0269 15.9261 38.067 15.7004C38.1071 15.4747 38.1023 15.2433 38.053 15.0194C38.0036 14.7955 37.9107 14.5835 37.7794 14.3956C37.6481 14.2076 37.4812 14.0474 37.288 13.924C37.0948 13.8006 36.8792 13.7164 36.6534 13.6763C36.4277 13.6362 36.1963 13.641 35.9724 13.6903C35.7486 13.7397 35.5366 13.8326 35.3487 13.9639L24.1316 22.1306L24.1304 22.1312L24.1293 22.1306L12.9122 13.9639C12.5326 13.6988 12.0633 13.5954 11.6074 13.6763C11.1516 13.7573 10.7466 14.016 10.4815 14.3956C10.2164 14.7752 10.1129 15.2445 10.1939 15.7004C10.2749 16.1562 10.5336 16.5612 10.9132 16.8263L10.8666 16.792L24.1304 26.4493M37.3948 16.792L24.1304 26.4493L37.3948 16.792Z" fill="black"/>
<path d="M36.3482 13.6499C35.9764 13.6499 35.6314 13.7663 35.3487 13.9641L24.1316 22.1308L24.1305 22.1313L24.1293 22.1308L12.9122 13.9641C12.6193 13.7591 12.2703 13.6493 11.9127 13.6499H36.3482Z" fill="#EFEFEF"/>
<path d="M13.6587 19.5767L10.7171 16.6631L10.7159 16.6654C10.7776 16.7236 10.8434 16.7771 10.9132 16.826L10.8666 16.7917L13.6593 18.825L13.6587 19.5977" fill="black"/>
<path d="M22.1919 27.9567L13.6581 34.5945L13.6587 19.5044L22.1901 27.9544" fill="#E3E3E3"/>
<path d="M22.1919 27.9565L24.1305 26.4491L13.6587 18.8252V19.5042L22.1902 27.9542L22.1919 27.9565Z" fill="url(#paint0_linear_1304_15578)"/>
<path d="M28.8203 34.5943H34.6028V18.8247L24.1305 26.4492L22.1902 27.9543L28.8203 34.5943Z" fill="url(#paint1_linear_1304_15578)"/>
</g>
<defs>
<linearGradient id="paint0_linear_1304_15578" x1="13.6587" y1="23.3911" x2="24.1305" y2="23.3911" gradientUnits="userSpaceOnUse">
<stop stop-color="#C8C8C8"/>
<stop offset="1" stop-color="#CDCDCD"/>
</linearGradient>
<linearGradient id="paint1_linear_1304_15578" x1="22.1902" y1="26.7092" x2="34.6028" y2="26.7092" gradientUnits="userSpaceOnUse">
<stop stop-color="#D9D9D9"/>
<stop offset="1" stop-color="#E2E2E2"/>
</linearGradient>
<clipPath id="clip0_1304_15578">
<rect width="38" height="21.1888" fill="white" transform="translate(5.05005 13.4058)"/>
</clipPath>
</defs>
</svg>
