<svg width="120" height="109" viewBox="0 0 120 109" fill="none" xmlns="http://www.w3.org/2000/svg">
<path fill-rule="evenodd" clip-rule="evenodd" d="M97.0627 82.1919C97.0627 82.6081 97.0422 83.0177 97.0393 83.4338H20.4406C20.4406 83.07 20.4204 82.7091 20.4059 82.3482C20.389 80.569 21.0018 78.8419 22.1359 77.4716C24 75.0596 26.2383 72.9613 28.7656 71.258C33.8476 67.6653 39.4828 64.9296 45.4475 63.1573C46.2825 62.8547 47.0032 62.2998 47.5104 61.5702C48.0177 60.8406 48.286 59.971 48.2793 59.0822C48.3113 57.5602 48.2967 56.0387 48.2793 54.5168C48.2651 54.3174 48.1771 54.13 48.0322 53.9924C42.5612 48.9249 39.0593 42.0837 38.1462 34.6794C37.5257 30.9666 37.7397 27.1616 38.7737 23.5422C39.5927 20.4574 41.2051 17.6408 43.4498 15.3734C45.6945 13.106 48.4936 11.4671 51.5682 10.619C56.6178 8.99798 62.0668 9.13481 67.0284 11.0083C70.1724 12.0855 72.9626 14.0023 75.0971 16.5513C77.2316 19.1004 78.6293 22.1854 79.1392 25.4718C80.2418 31.638 79.4133 37.9943 76.7667 43.6709C75.1172 47.6185 72.6064 51.1481 69.4186 53.9995C69.2765 54.1382 69.1913 54.3241 69.1801 54.5224C69.1626 56.0298 69.1452 57.5379 69.1801 59.0424C69.2447 59.9852 69.5832 60.8885 70.154 61.6412C70.7249 62.394 71.5032 62.9635 72.3931 63.2795C79.1635 65.2401 85.4685 68.5484 90.9299 73.0071C92.9552 74.5865 94.6928 76.505 96.0653 78.6766C96.7338 79.7257 97.0806 80.9478 97.0627 82.1919V82.1919Z" fill="white"/>
<path d="M58.7324 99.2943C57.7776 99.2943 56.862 99.6525 56.1868 100.29C55.5117 100.928 55.1324 101.793 55.1324 102.694C55.1324 103.596 55.5117 104.461 56.1868 105.098C56.862 105.736 57.7776 106.094 58.7324 106.094C59.6872 106.094 60.6029 105.736 61.278 105.098C61.9531 104.461 62.3324 103.596 62.3324 102.694C62.3324 101.793 61.9531 100.928 61.278 100.29C60.6029 99.6525 59.6872 99.2943 58.7324 99.2943ZM56.0324 102.694C56.0324 102.018 56.3169 101.369 56.8232 100.891C57.3296 100.413 58.0163 100.144 58.7324 100.144C59.4485 100.144 60.1353 100.413 60.6416 100.891C61.148 101.369 61.4324 102.018 61.4324 102.694C61.4324 103.371 61.148 104.019 60.6416 104.497C60.1353 104.976 59.4485 105.244 58.7324 105.244C58.0163 105.244 57.3296 104.976 56.8232 104.497C56.3169 104.019 56.0324 103.371 56.0324 102.694Z" fill="white"/>
<path d="M57.044 95.8943C56.7939 95.8943 56.5486 95.9599 56.3357 96.0839C56.1227 96.2079 55.9504 96.3853 55.838 96.5964L55.307 97.5943H53.786C53.1893 97.5943 52.617 97.8182 52.195 98.2167C51.7731 98.6152 51.536 99.1557 51.536 99.7193V106.519C51.536 107.083 51.7731 107.623 52.195 108.022C52.617 108.42 53.1893 108.644 53.786 108.644H63.686C64.2827 108.644 64.855 108.42 65.277 108.022C65.699 107.623 65.936 107.083 65.936 106.519V99.7193C65.936 99.1557 65.699 98.6152 65.277 98.2167C64.855 97.8182 64.2827 97.5943 63.686 97.5943H62.165L61.6394 96.5998C61.5274 96.3878 61.355 96.2095 61.1417 96.0849C60.9283 95.9603 60.6825 95.8943 60.4316 95.8943H57.044ZM56.6417 96.978C56.6792 96.9077 56.7367 96.8486 56.8078 96.8073C56.8788 96.766 56.9606 96.7442 57.044 96.7443H60.4316C60.5151 96.7443 60.597 96.7662 60.668 96.8077C60.7391 96.8491 60.7965 96.9084 60.8339 96.9789L61.4846 98.2088C61.5221 98.2795 61.5797 98.3388 61.6509 98.3803C61.7221 98.4217 61.8042 98.4436 61.8878 98.4434H63.6869C64.045 98.4434 64.3883 98.5778 64.6415 98.8169C64.8947 99.056 65.0369 99.3803 65.0369 99.7184V106.519C65.0369 106.857 64.8947 107.182 64.6415 107.421C64.3883 107.66 64.045 107.794 63.6869 107.794H53.7869C53.4289 107.794 53.0855 107.66 52.8323 107.421C52.5791 107.182 52.4369 106.857 52.4369 106.519V99.7193C52.4369 99.3811 52.5791 99.0568 52.8323 98.8177C53.0855 98.5786 53.4289 98.4443 53.7869 98.4443H55.5842C55.6677 98.4443 55.7496 98.4223 55.8206 98.3809C55.8917 98.3395 55.9491 98.2802 55.9865 98.2097L56.6417 96.978V96.978Z" fill="white"/>
<line x1="84.3695" y1="1.85547" x2="113.539" y2="1.85547" stroke="white"/>
<line x1="114.039" y1="1.3916" x2="114.039" y2="25.2686" stroke="white"/>
<line y1="-0.5" x2="29.1696" y2="-0.5" transform="matrix(1 0 0 -1 88.917 100.342)" stroke="white"/>
<line y1="-0.5" x2="23.877" y2="-0.5" transform="matrix(-4.37114e-08 -1 -1 4.37114e-08 118.087 101.306)" stroke="white"/>
<line x1="31.1696" y1="101.5" x2="2" y2="101.5" stroke="white"/>
<line x1="1.5" y1="101.877" x2="1.5" y2="78" stroke="white"/>
<line y1="-0.5" x2="29.1696" y2="-0.5" transform="matrix(-1 0 0 1 31.0759 1.96484)" stroke="white"/>
<line y1="-0.5" x2="23.877" y2="-0.5" transform="matrix(4.37114e-08 1 1 -4.37114e-08 1.90625 1.00098)" stroke="white"/>
</svg>
